<?xml version="1.0" encoding="UTF-8" standalone="no"?>
<!-- Created with Inkscape (http://www.inkscape.org/) -->

<svg
   xmlns:dc="http://purl.org/dc/elements/1.1/"
   xmlns:cc="http://creativecommons.org/ns#"
   xmlns:rdf="http://www.w3.org/1999/02/22-rdf-syntax-ns#"
   xmlns:svg="http://www.w3.org/2000/svg"
   xmlns="http://www.w3.org/2000/svg"
   xmlns:sodipodi="http://sodipodi.sourceforge.net/DTD/sodipodi-0.dtd"
   xmlns:inkscape="http://www.inkscape.org/namespaces/inkscape"
   width="162.30811mm"
   height="42.455105mm"
   viewBox="0 0 162.30811 42.455105"
   version="1.1"
   id="svg8"
   inkscape:version="0.92.4 (5da689c313, 2019-01-14)"
   sodipodi:docname="logo_svg.svg">
  <defs
     id="defs2" />
  <sodipodi:namedview
     id="base"
     pagecolor="#ffffff"
     bordercolor="#666666"
     borderopacity="1.0"
     inkscape:pageopacity="0.0"
     inkscape:pageshadow="2"
     inkscape:zoom="0.9899495"
     inkscape:cx="76.202038"
     inkscape:cy="44.947749"
     inkscape:document-units="mm"
     inkscape:current-layer="layer1"
     showgrid="false"
     inkscape:window-width="2560"
     inkscape:window-height="1057"
     inkscape:window-x="-8"
     inkscape:window-y="-8"
     inkscape:window-maximized="1"
     objecttolerance="20"
     fit-margin-top="0"
     fit-margin-left="0"
     fit-margin-right="0"
     fit-margin-bottom="0" />
  <metadata
     id="metadata5">
    <rdf:RDF>
      <cc:Work
         rdf:about="">
        <dc:format>image/svg+xml</dc:format>
        <dc:type
           rdf:resource="http://purl.org/dc/dcmitype/StillImage" />
        <dc:title></dc:title>
      </cc:Work>
    </rdf:RDF>
  </metadata>
  <g
     inkscape:label="Capa 1"
     inkscape:groupmode="layer"
     id="layer1"
     transform="translate(-13.164765,-15.477598)">
    <path
       inkscape:connector-curvature="0"
       id="path1062"
       d="m 25.107028,57.168491 c -0.56968,-0.33579 -2.40392,-1.39395 -4.07607,-2.35148 -3.27,-1.87249 -6.38672,-3.67576 -6.94566,-4.01861 -0.19032,-0.11673 -0.47395,-0.45985 -0.6303,-0.76248 -0.27378,-0.5299 -0.28426,-1.02604 -0.28373,-13.42174 5.9e-4,-12.52244 0.008,-12.88442 0.29124,-13.34823 0.34436,-0.56478 0.51179,-0.6737 5.03376,-3.27474 6.83048,-3.928904 7.80083,-4.478297 7.9108,-4.478908 0.14372,-8.01e-4 0.14156,4.027518 -0.002,4.234958 -0.11116,0.16032 -1.15422,0.77452 -6.26368,3.68838 l -2.89198,1.64926 -0.0359,11.56418 -0.0359,11.56418 4.26266,2.43634 c 2.34446,1.33999 4.44619,2.5625 4.6705,2.71669 l 0.40784,0.28035 v 2.06619 c 0,1.5679 -0.0453,2.06619 -0.18773,2.06619 -0.10326,0 -0.65385,-0.27474 -1.22353,-0.61053 z m 12.47597,0.37594 c -0.12784,-0.33314 -0.10763,-3.66103 0.0235,-3.86527 0.10246,-0.15962 1.84277,-1.18989 7.07936,-4.19098 l 2.2246,-1.27492 0.038,-11.50654 0.038,-11.50653 -2.78166,-1.60572 c -1.5299,-0.88314 -3.62366,-2.09664 -4.65279,-2.69666 l -1.87114,-1.09095 -0.0939,-0.685226 c -0.13761,-1.004006 -0.11031,-3.206108 0.0427,-3.447875 0.10502,-0.165877 0.73589,0.141428 3.07509,1.497905 1.61864,0.938628 4.44458,2.570246 6.27987,3.625826 3.11757,1.79309 3.35883,1.96232 3.67058,2.57487 l 0.33369,0.65564 -8.9e-4,12.46339 c -5.9e-4,8.65619 -0.051,12.64408 -0.16503,13.05489 -0.0903,0.32532 -0.37952,0.79249 -0.64268,1.03814 -0.26315,0.24566 -1.84065,1.22215 -3.50554,2.16997 -1.6649,0.94781 -4.3188,2.4661 -5.89757,3.37397 -1.5787,0.90786 -2.923,1.65066 -2.98727,1.65066 -0.0643,0 -0.15737,-0.10556 -0.20688,-0.23459 z m 25.27038,-9.69192 c -1.63996,-0.32913 -3.3928,-1.31242 -4.69097,-2.63151 -1.76926,-1.79776 -2.56109,-3.54022 -2.68395,-5.90613 -0.10909,-2.10083 0.12941,-3.39561 0.93444,-5.07291 1.44956,-3.02021 4.3183,-4.94063 7.73832,-5.18025 2.86861,-0.20099 5.3962,0.68352 7.452242,2.60785 l 0.667379,0.62463 0.04215,-1.57476 c 0.04826,-1.80309 0.09606,-1.86246 1.40493,-1.74509 l 0.705548,0.0633 -0.03817,9.43952 -0.03817,9.43951 -1.001069,0.0439 -1.001068,0.0438 v -1.72432 -1.72431 l -1.043502,0.95238 c -1.13963,1.04013 -2.67642,1.89139 -4.06715,2.25292 -0.91176,0.23701 -3.39724,0.28892 -4.38096,0.0915 z m 3.7271,-2.1516 c 1.33681,-0.28335 2.39386,-0.84892 3.42516,-1.83262 1.05384,-1.00519 1.626899,-1.97473 2.032156,-3.43814 0.714869,-2.58145 0.05185,-5.1172 -1.843246,-7.04959 -1.67355,-1.7065 -3.36733,-2.37774 -5.71463,-2.26471 -1.30471,0.0628 -1.54452,0.12339 -2.67913,0.67657 -2.71631,1.32435 -4.30368,3.73739 -4.31436,6.55846 -0.0188,4.95595 4.22129,8.38286 9.09405,7.35003 z m 9.359849,-7.16465 0.03817,-9.45454 5.851213,-0.0388 c 4.82096,-0.032 5.982992,-10e-5 6.599638,0.18113 2.530651,0.74374 4.173468,3.41061 3.66392,5.94783 -0.251066,1.25015 -0.735149,2.08892 -1.719891,2.98006 -1.005099,0.90957 -2.209495,1.37526 -3.621207,1.40019 -1.789066,0.0316 -1.926389,-0.19485 2.49532,4.11477 2.20479,2.1489 4.008716,4.00088 4.008716,4.1155 0,0.16315 -0.28205,0.20842 -1.298494,0.20842 h -1.298487 l -5.078691,-5.0803 c -2.79328,-2.79415 -5.07869,-5.16335 -5.07869,-5.26487 0,-0.1418 0.775627,-0.18459 3.345376,-0.18459 1.926874,0 3.618123,-0.0687 3.988619,-0.16197 0.398774,-0.10041 0.873313,-0.38305 1.248597,-0.74365 1.651466,-1.58688 1.170123,-4.37498 -0.904993,-5.24202 -0.457649,-0.19122 -1.35482,-0.22954 -5.374085,-0.22954 h -4.824724 v 8.45347 8.45347 h -1.039243 -1.039242 z m 21.913379,9.32497 c -0.82379,-0.27308 -1.88421,-0.9146 -2.39998,-1.45192 -0.92952,-0.96835 -1.32528,-1.95723 -1.46691,-3.66538 -0.14289,-1.72341 -0.1829,-13.00028 -0.0474,-13.35346 0.0691,-0.18007 0.31039,-0.23459 1.03815,-0.23459 h 0.94812 v 4.1503 4.15031 l 4.263814,0.0393 4.26381,0.0393 v 0.96399 0.96399 l -4.20352,0.0394 -4.203504,0.0394 0.0543,2.11104 c 0.047,1.82622 0.0984,2.19438 0.38127,2.72885 0.40685,0.76874 0.96828,1.17756 1.90566,1.38763 2.074084,0.46481 3.826084,-0.73497 4.044684,-2.76982 l 0.0931,-0.867 0.87608,-0.0452 c 0.98943,-0.051 1.12027,0.0504 1.12379,0.87102 0.005,1.2819 -0.76133,2.86868 -1.84698,3.82189 -0.96547,0.84769 -1.6517,1.10185 -3.119017,1.15519 -0.734107,0.0267 -1.501597,-0.007 -1.705517,-0.0744 z m 8.453464,-7.87898 v -8.00855 h 0.96399 0.96399 v 8.00855 8.00855 h -0.96399 -0.96399 z m 3.77579,7.82316 c -0.039,-0.10196 -0.0536,-4.3565 -0.0324,-9.45453 l 0.0384,-9.26916 1.00107,-0.0439 c 0.87997,-0.0386 1.00129,-0.0116 1.0029,0.22246 0.001,0.14647 0.0177,3.9369 0.0371,8.42317 l 0.0352,8.15685 1.63137,0.0404 c 1.82073,0.0451 2.00214,0.13891 2.00214,1.03586 0,1.07503 0.002,1.07421 -2.976,1.07421 -1.9985,0 -2.68676,-0.0466 -2.73982,-0.18539 z m 7.19888,-9.30295 v -9.49489 h 0.964 0.96399 v 8.4489 8.44891 l 1.81675,0.0416 1.81676,0.0416 v 0.96399 0.96399 l -2.78075,0.0404 -2.78075,0.0403 z m 12.60605,9.25012 c -2.58119,-0.69205 -4.98139,-2.6239 -6.15124,-4.95096 -0.69895,-1.39036 -0.8873,-2.32801 -0.87912,-4.37659 0.007,-1.68173 0.0564,-2.06499 0.38899,-3.00063 0.56102,-1.57824 1.06455,-2.34994 2.40154,-3.68054 1.88258,-1.87361 3.98216,-2.73114 6.68689,-2.73114 3.70513,0 6.82545,1.96189 8.54821,5.37467 0.53888,1.06751 1.04738,3.29383 0.98734,4.32276 l -0.0439,0.75302 -8.43514,0.0383 -8.43515,0.0383 0.0952,0.62907 c 0.16074,1.06209 1.04123,2.65351 1.99746,3.6103 1.18456,1.18526 2.41444,1.7952 4.06515,2.01607 2.59239,0.34685 4.63268,-0.30367 6.51161,-2.07616 0.99722,-0.94072 1.06597,-0.97811 1.91107,-1.03924 1.10372,-0.0798 1.22477,0.12902 0.64881,1.11948 -1.00059,1.7207 -3.38706,3.40594 -5.62011,3.96872 -1.12051,0.28239 -3.5972,0.27421 -4.67758,-0.0154 z m 9.70463,-10.84769 c -0.17094,-0.9797 -1.07431,-2.65886 -1.92446,-3.57713 -0.60906,-0.65786 -1.13749,-1.04024 -2.08868,-1.51144 -1.1718,-0.58048 -1.38742,-0.63628 -2.70391,-0.69967 -3.24909,-0.15645 -5.8076,1.25221 -7.21488,3.97235 -0.26253,0.50744 -0.66156,1.81946 -0.66505,2.18665 -0.001,0.14584 1.56575,0.18539 7.34613,0.18539 h 7.34789 z m 3.79126,1.59494 v -9.50451 l 6.1918,0.0432 6.19179,0.0432 0.84298,0.42714 c 1.15821,0.58688 1.94535,1.38957 2.49783,2.54719 0.39729,0.83244 0.46742,1.14886 0.46917,2.11665 0.004,2.14515 -1.05142,3.8625 -2.94688,4.79564 -0.85923,0.42299 -1.16971,0.49176 -2.53969,0.56252 l -1.56077,0.0806 4.11924,4.02893 c 2.34478,2.29338 4.07645,4.09817 4.0199,4.18966 -0.13608,0.2202 -2.29777,0.19629 -2.70431,-0.0299 -0.32489,-0.18077 -10.0144,-9.96945 -10.10714,-10.21058 -0.0272,-0.0707 1.50777,-0.12891 3.41105,-0.12937 1.95698,-4.4e-4 3.70388,-0.0684 4.02067,-0.1564 2.50815,-0.69651 2.9586,-4.40048 0.70723,-5.81531 -0.51288,-0.32231 -0.64971,-0.33159 -5.53,-0.37489 l -5.00412,-0.0444 -0.0383,8.42372 -0.0383,8.42371 -1.00107,0.0439 -1.00107,0.0438 z m 23.10625,4.63393 c -0.0418,-4.55828 -0.0628,-4.88602 -0.34121,-5.3282 -0.16313,-0.25914 -1.68142,-2.30228 -3.37397,-4.54032 -1.69254,-2.23803 -3.07736,-4.11156 -3.07736,-4.16341 0,-0.0518 0.53391,-0.0943 1.18646,-0.0943 0.94348,0 1.2396,0.0543 1.44598,0.26496 0.14275,0.14573 1.36051,1.7458 2.70612,3.55571 2.30173,3.09592 2.46128,3.2756 2.69489,3.03486 0.13656,-0.14074 1.1872,-1.49054 2.33473,-2.99956 1.14754,-1.50902 2.29111,-2.99394 2.54129,-3.29982 l 0.45486,-0.55615 h 1.17809 c 0.64793,0 1.17807,0.0455 1.17807,0.10099 0,0.10847 -0.50899,0.78924 -3.86088,5.16389 -1.18747,1.5498 -2.33953,3.08358 -2.56012,3.4084 l -0.4011,0.59057 v 4.85969 4.85969 h -1.03062 -1.03065 z m -128.550482,2.51828 c -2.4676,-1.23231 -3.57054,-1.86179 -3.78182,-2.15839 -0.28776,-0.40397 -0.29826,-0.64454 -0.29826,-6.82862 0,-5.94069 0.0197,-6.43995 0.26898,-6.82043 0.19643,-0.29978 1.19425,-0.86812 3.69896,-2.10684 1.88648,-0.93298 3.48394,-1.69632 3.5499,-1.69632 0.066,0 0.11994,0.96872 0.11994,2.15271 v 2.1527 l -1.85383,0.90273 -1.85383,0.90272 0.003,4.54528 0.003,4.54527 1.85074,0.87849 1.85075,0.87849 v 2.19887 c 0,1.20938 -0.0167,2.19755 -0.0371,2.19594 -0.0204,-0.002 -1.60467,-0.78578 -3.52062,-1.7426 z m -15.39252,-0.50266 0.0411,-2.09988 1.8909,-0.94129 1.89091,-0.94128 -2.8e-4,-4.48539 -2.9e-4,-4.48538 -1.89062,-0.96399 -1.89062,-0.964 -0.0411,-2.11336 c -0.0249,-1.27696 0.0151,-2.11337 0.10093,-2.11337 0.0781,0 1.64335,0.73526 3.47823,1.63392 2.29641,1.12469 3.45515,1.77533 3.71796,2.08767 l 0.38181,0.45375 -5.9e-4,6.40287 c -4.5e-4,5.95262 -0.0197,6.4343 -0.27308,6.84975 -0.21575,0.35379 -0.97362,0.79402 -3.63824,2.11337 -1.85111,0.91657 -3.46525,1.66649 -3.58693,1.66649 -0.18764,0 -0.21499,-0.31893 -0.18009,-2.09988 z m 83.847472,-14.0769 c -0.7772,-0.92366 -0.25543,-2.06491 0.94407,-2.06491 0.80093,0 1.19319,0.39238 1.19319,1.19353 0,1.23562 -1.36313,1.79138 -2.13726,0.87138 z"
       style="fill:#230000;fill-opacity:1;stroke-width:0.14830646" />
  </g>
</svg>
